<?xml version="1.0" encoding="utf-8"?>
<!-- Generator: Adobe Illustrator 23.0.2, SVG Export Plug-In . SVG Version: 6.00 Build 0)  -->
<svg version="1.1" id="svg_null" xmlns="http://www.w3.org/2000/svg" xmlns:xlink="http://www.w3.org/1999/xlink" x="0px" y="0px"
	 viewBox="0 0 100 105" style="enable-background:new 0 0 100 105;" xml:space="preserve">
<style type="text/css">
	.st0{fill-rule:evenodd;clip-rule:evenodd;fill:#FFFFFF;}
	.st1{fill-rule:evenodd;clip-rule:evenodd;fill:#FFCC00;}
	.st2{fill-rule:evenodd;clip-rule:evenodd;fill:#203E5F;fill-opacity:0.8;}
	.st3{fill:none;}
</style>
<g id="root">
	<rect id="background" x="-40" y="-182" class="st0" width="500" height="500"/>
	<path id="shape.accent" class="st1" d="M51.2,8.2c-2.3,0-4.2-1.8-4.2-4.1S48.9,0,51.2,0s4.2,1.8,4.2,4.1S53.5,8.2,51.2,8.2z
		 M72.9,11.9c-2-1.1-2.8-3.6-1.8-5.6c1.1-2,3.6-2.7,5.7-1.6s2.9,3.6,1.8,5.6S75,13,72.9,11.9L72.9,11.9z M90.4,25.1
		c-1.3-1.9-0.9-4.5,0.9-5.8c1.9-1.3,4.4-0.8,5.8,1.1c1.3,1.9,0.9,4.5-0.9,5.8C94.3,27.5,91.7,27,90.4,25.1L90.4,25.1z M87,84.3
		c1.7-1.6,4.4-1.5,5.9,0.2s1.3,4.3-0.4,5.9c-1.7,1.6-4.4,1.5-5.9-0.2C85.1,88.5,85.2,85.9,87,84.3z M68.2,95.5
		c2.3-0.6,4.5,0.8,5.1,3c0.5,2.2-0.8,4.4-3.1,5c-2.3,0.6-4.5-0.8-5.1-3S65.9,96.1,68.2,95.5z M46.2,96.9c2.3,0.6,3.6,2.8,3.1,5
		s-2.8,3.5-5.1,3c-2.3-0.6-3.6-2.8-3.1-5C41.7,97.7,43.9,96.3,46.2,96.9z M26.1,88.3c1.7,1.6,1.9,4.2,0.4,5.9
		c-1.5,1.7-4.2,1.8-5.9,0.2c-1.7-1.6-1.9-4.2-0.4-5.9S24.3,86.7,26.1,88.3L26.1,88.3z M12.3,71.4c0.8,2.2-0.2,4.6-2.3,5.4
		s-4.5-0.3-5.3-2.5s0.2-4.6,2.3-5.4C9.1,68.2,11.5,69.3,12.3,71.4z M8.2,50.4c-0.3,2.3-2.3,4-4.6,3.7c-2.2-0.3-3.8-2.4-3.6-4.7
		c0.3-2.3,2.3-4,4.6-3.7S8.5,48.1,8.2,50.4L8.2,50.4z M14.7,29.9c-1.3,1.9-3.9,2.4-5.8,1.1S6.6,27.1,8,25.2c1.3-1.9,3.9-2.4,5.8-1.1
		C15.6,25.4,16,28,14.7,29.9L14.7,29.9z M30.2,14.7c-2.1,1.1-4.6,0.4-5.7-1.6s-0.3-4.5,1.8-5.6c2.1-1.1,4.6-0.4,5.7,1.6
		S32.3,13.6,30.2,14.7z"/>
	<path id="shape.secondary" class="st2" d="M52.1,19c-1.7,0-3.1-1.3-3.1-3s1.4-3,3.1-3c1.7,0,3.1,1.3,3.1,3S53.8,19,52.1,19z
		 M68.9,22.8c-1.5-0.8-2.1-2.6-1.3-4.1c0.8-1.5,2.6-2,4.1-1.2s2.1,2.6,1.3,4.1C72.2,23.1,70.3,23.6,68.9,22.8L68.9,22.8z M81.6,32.6
		c-1-1.4-0.6-3.3,0.7-4.2c1.4-1,3.2-0.6,4.2,0.8s0.6,3.3-0.7,4.2S82.6,34,81.6,32.6z M79.2,76.1c1.3-1.1,3.2-1,4.3,0.2
		c1.1,1.2,1,3.2-0.3,4.3c-1.3,1.1-3.2,1-4.3-0.2C77.8,79.2,78,77.2,79.2,76.1L79.2,76.1z M65,83.7c1.6-0.4,3.3,0.6,3.7,2.2
		c0.4,1.6-0.6,3.3-2.2,3.7s-3.3-0.6-3.7-2.2C62.4,85.7,63.4,84.1,65,83.7z M49.1,84.7c1.6,0.4,2.6,2,2.2,3.7
		c-0.4,1.6-2.1,2.6-3.7,2.2c-1.6-0.4-2.6-2-2.2-3.7C45.8,85.3,47.5,84.3,49.1,84.7z M35.1,79c1.3,1.1,1.4,3,0.3,4.3
		c-1.1,1.2-3,1.3-4.3,0.2s-1.4-3-0.3-4.3C32,77.9,33.9,77.9,35.1,79L35.1,79z M24.8,66.3c0.6,1.6-0.2,3.3-1.7,3.9s-3.3-0.2-3.9-1.8
		c-0.6-1.6,0.2-3.3,1.7-3.9S24.2,64.7,24.8,66.3z M21.3,50.4c-0.2,1.6-1.7,2.8-3.4,2.6s-2.8-1.7-2.6-3.4s1.7-2.9,3.4-2.7
		C20.3,47.2,21.5,48.7,21.3,50.4z M26.8,36.2c-1,1.4-2.9,1.7-4.2,0.8c-1.4-1-1.7-2.8-0.7-4.2c1-1.4,2.9-1.7,4.2-0.8
		C27.5,32.9,27.8,34.8,26.8,36.2L26.8,36.2z M38,24.9c-1.5,0.8-3.3,0.2-4.1-1.2s-0.2-3.3,1.3-4.1c1.5-0.8,3.3-0.2,4.1,1.2
		C40,22.2,39.4,24.1,38,24.9L38,24.9z"/>
	<g id="Group" transform="translate(140.000000, 206.000000)">
		<rect id="Rectangle-71" x="-40" y="-182" class="st3" width="320" height="70"/>
	</g>
</g>
</svg>
