<?xml version="1.0" encoding="utf-8"?>
<!-- Generator: Adobe Illustrator 23.0.2, SVG Export Plug-In . SVG Version: 6.00 Build 0)  -->
<svg version="1.1" id="svg_null" xmlns="http://www.w3.org/2000/svg" xmlns:xlink="http://www.w3.org/1999/xlink" x="0px" y="0px"
	 viewBox="0 0 313.9 105" style="enable-background:new 0 0 313.9 105;" xml:space="preserve">
<style type="text/css">
	.st0{fill-rule:evenodd;clip-rule:evenodd;fill:#FFFFFF;}
	.st1{fill-rule:evenodd;clip-rule:evenodd;fill:#FFCC00;}
	.st2{fill-rule:evenodd;clip-rule:evenodd;fill:#203E5F;fill-opacity:0.8;}
	.st3{fill:none;}
	.st4{fill:#1A2634;}
	.st5{font-family:'Arial-BoldMT';}
	.st6{font-size:70px;}
	.st7{letter-spacing:6;}
</style>
<g id="root">
	<rect id="background" x="-40.1" y="-182" class="st0" width="500" height="500"/>
	<path id="shape.accent" class="st1" d="M51.1,8.2c-2.3,0-4.2-1.8-4.2-4.1S48.8,0,51.1,0c2.3,0,4.2,1.8,4.2,4.1S53.4,8.2,51.1,8.2z
		 M72.8,11.9C70.8,10.8,70,8.3,71,6.3c1.1-2,3.6-2.7,5.7-1.6c2.1,1.1,2.9,3.6,1.8,5.6S74.9,13,72.8,11.9L72.8,11.9z M90.3,25.1
		c-1.3-1.9-0.9-4.5,0.9-5.8c1.9-1.3,4.4-0.8,5.8,1.1c1.3,1.9,0.9,4.5-0.9,5.8C94.2,27.5,91.6,27,90.3,25.1L90.3,25.1z M86.9,84.3
		c1.7-1.6,4.4-1.5,5.9,0.2c1.5,1.7,1.3,4.3-0.4,5.9c-1.7,1.6-4.4,1.5-5.9-0.2C85,88.5,85.1,85.9,86.9,84.3z M68.1,95.5
		c2.3-0.6,4.5,0.8,5.1,3c0.5,2.2-0.8,4.4-3.1,5c-2.3,0.6-4.5-0.8-5.1-3C64.4,98.3,65.8,96.1,68.1,95.5z M46.1,96.9
		c2.3,0.6,3.6,2.8,3.1,5c-0.5,2.2-2.8,3.5-5.1,3c-2.3-0.6-3.6-2.8-3.1-5C41.6,97.7,43.8,96.3,46.1,96.9z M26,88.3
		c1.7,1.6,1.9,4.2,0.4,5.9c-1.5,1.7-4.2,1.8-5.9,0.2c-1.7-1.6-1.9-4.2-0.4-5.9S24.2,86.7,26,88.3L26,88.3z M12.2,71.4
		c0.8,2.2-0.2,4.6-2.3,5.4c-2.1,0.8-4.5-0.3-5.3-2.5c-0.8-2.2,0.2-4.6,2.3-5.4C9,68.2,11.4,69.3,12.2,71.4z M8.1,50.4
		c-0.3,2.3-2.3,4-4.6,3.7c-2.2-0.3-3.8-2.4-3.6-4.7c0.3-2.3,2.3-4,4.6-3.7C6.8,46,8.4,48.1,8.1,50.4L8.1,50.4z M14.6,29.9
		c-1.3,1.9-3.9,2.4-5.8,1.1c-1.9-1.3-2.3-3.9-0.9-5.8c1.3-1.9,3.9-2.4,5.8-1.1C15.5,25.4,15.9,28,14.6,29.9L14.6,29.9z M30.1,14.7
		c-2.1,1.1-4.6,0.4-5.7-1.6c-1.1-2-0.3-4.5,1.8-5.6c2.1-1.1,4.6-0.4,5.7,1.6C33,11.1,32.2,13.6,30.1,14.7z"/>
	<path id="shape.secondary" class="st2" d="M52,19c-1.7,0-3.1-1.3-3.1-3c0-1.7,1.4-3,3.1-3c1.7,0,3.1,1.3,3.1,3
		C55.1,17.7,53.7,19,52,19z M68.8,22.8c-1.5-0.8-2.1-2.6-1.3-4.1c0.8-1.5,2.6-2,4.1-1.2c1.5,0.8,2.1,2.6,1.3,4.1
		C72.1,23.1,70.2,23.6,68.8,22.8L68.8,22.8z M81.5,32.6c-1-1.4-0.6-3.3,0.7-4.2c1.4-1,3.2-0.6,4.2,0.8s0.6,3.3-0.7,4.2
		C84.4,34.3,82.5,34,81.5,32.6z M79.1,76.1c1.3-1.1,3.2-1,4.3,0.2c1.1,1.2,1,3.2-0.3,4.3c-1.3,1.1-3.2,1-4.3-0.2
		C77.7,79.2,77.9,77.2,79.1,76.1L79.1,76.1z M64.9,83.7c1.6-0.4,3.3,0.6,3.7,2.2c0.4,1.6-0.6,3.3-2.2,3.7s-3.3-0.6-3.7-2.2
		C62.3,85.7,63.3,84.1,64.9,83.7z M49,84.7c1.6,0.4,2.6,2,2.2,3.7c-0.4,1.6-2.1,2.6-3.7,2.2c-1.6-0.4-2.6-2-2.2-3.7
		C45.7,85.3,47.4,84.3,49,84.7z M35,79c1.3,1.1,1.4,3,0.3,4.3c-1.1,1.2-3,1.3-4.3,0.2s-1.4-3-0.3-4.3C31.9,77.9,33.8,77.9,35,79
		L35,79z M24.7,66.3c0.6,1.6-0.2,3.3-1.7,3.9s-3.3-0.2-3.9-1.8s0.2-3.3,1.7-3.9S24.1,64.7,24.7,66.3z M21.2,50.4
		C21,52,19.5,53.2,17.8,53s-2.8-1.7-2.6-3.4c0.2-1.7,1.7-2.9,3.4-2.7C20.2,47.2,21.4,48.7,21.2,50.4z M26.7,36.2
		c-1,1.4-2.9,1.7-4.2,0.8c-1.4-1-1.7-2.8-0.7-4.2c1-1.4,2.9-1.7,4.2-0.8C27.4,32.9,27.7,34.8,26.7,36.2L26.7,36.2z M37.9,24.9
		c-1.5,0.8-3.3,0.2-4.1-1.2s-0.2-3.3,1.3-4.1c1.5-0.8,3.3-0.2,4.1,1.2C39.9,22.2,39.3,24.1,37.9,24.9L37.9,24.9z"/>
	<g id="Group" transform="translate(140.000000, 206.000000)">
		<rect id="Rectangle-71" x="-40.1" y="-182" class="st3" width="320" height="70"/>
		<text transform="matrix(1 0 0 1 -40.143 -120.5)" class="st4 st5 st6 st7">Shine</text>
	</g>
</g>
</svg>
